<svg width="60" height="55" viewBox="0 0 60 55" fill="none" xmlns="http://www.w3.org/2000/svg">
<g opacity="0.3" clip-path="url(#clip0_2_6)">
<path d="M30 55C46.5685 55 60 42.6878 60 27.5C60 12.3122 46.5685 0 30 0C13.4315 0 0 12.3122 0 27.5C0 42.6878 13.4315 55 30 55Z" fill="url(#paint0_linear_2_6)"/>
<path d="M37.184 35.608C37.1413 36.1413 36.928 36.6107 36.544 37.016C36.1813 37.4 35.7227 37.7307 35.168 38.008C34.6347 38.264 34.0587 38.456 33.44 38.584C32.8427 38.712 32.2987 38.776 31.808 38.776C30.3573 38.776 29.056 38.4347 27.904 37.752C26.752 37.048 25.7707 36.152 24.96 35.064C24.1493 33.9547 23.5093 32.728 23.04 31.384C22.592 30.0827 22.336 28.8027 22.272 27.544C22.3147 28.8453 22.56 30.1573 23.008 31.48C23.4773 32.8453 24.1173 34.0827 24.928 35.192C25.7387 36.3013 26.7307 37.208 27.904 37.912C29.0773 38.5947 30.4 38.936 31.872 38.936C32.6827 38.936 33.472 38.808 34.24 38.552C35.008 38.296 35.7227 37.944 36.384 37.496C35.8933 38.2427 35.2427 38.776 34.432 39.096C33.6213 39.416 32.7893 39.576 31.936 39.576C30.976 39.576 30.0907 39.4373 29.28 39.16C28.4693 38.904 27.68 38.488 26.912 37.912L26.784 37.4C25.9093 36.8667 25.152 36.2053 24.512 35.416C23.8933 34.6267 23.3813 33.7733 22.976 32.856C22.592 31.9387 22.304 30.9787 22.112 29.976C21.9413 28.9733 21.856 27.9707 21.856 26.968C21.856 25.9013 21.952 24.8453 22.144 23.8C22.3573 22.7333 22.6453 21.688 23.008 20.664C22.9227 20.664 22.88 20.632 22.88 20.568C22.432 21.5493 22.1013 22.5627 21.888 23.608C21.6747 24.6533 21.568 25.72 21.568 26.808C21.568 28.8773 21.9733 30.872 22.784 32.792C23.5947 34.6907 24.8 36.3013 26.4 37.624C25.568 36.984 24.832 36.248 24.192 35.416C23.5733 34.584 23.0613 33.6987 22.656 32.76C22.2507 31.8 21.9413 30.808 21.728 29.784C21.536 28.76 21.44 27.7253 21.44 26.68C21.44 25.272 21.632 23.8427 22.016 22.392C22.4213 20.92 23.0187 19.5867 23.808 18.392C24.6187 17.1973 25.6213 16.2267 26.816 15.48C28.0107 14.712 29.408 14.328 31.008 14.328C31.7333 14.328 32.416 14.4453 33.056 14.68C33.7173 14.9147 34.336 15.224 34.912 15.608C35.488 15.992 36.0213 16.4293 36.512 16.92C37.024 17.4107 37.504 17.912 37.952 18.424L37.28 19C36.9813 18.8933 36.6933 18.7333 36.416 18.52C36.16 18.2853 35.9253 18.0507 35.712 17.816L35.52 18.04C35.7973 18.36 36.0533 18.7333 36.288 19.16C36.5227 19.5653 36.64 19.992 36.64 20.44L36.288 21.016C36.0107 20.9947 35.6587 20.8347 35.232 20.536C34.8267 20.216 34.368 19.8853 33.856 19.544C33.3653 19.1813 32.8533 18.8507 32.32 18.552C31.808 18.2533 31.3067 18.104 30.816 18.104C30.176 18.104 29.6 18.264 29.088 18.584C28.5973 18.904 28.1493 19.32 27.744 19.832C27.3387 20.344 26.9867 20.9307 26.688 21.592C26.4107 22.2533 26.176 22.9253 25.984 23.608C25.8133 24.2907 25.6747 24.9627 25.568 25.624C25.4827 26.264 25.44 26.8293 25.44 27.32C25.44 28.152 25.568 29.0693 25.824 30.072C26.1013 31.0747 26.496 32.0133 27.008 32.888C27.5413 33.7413 28.192 34.456 28.96 35.032C29.728 35.608 30.6027 35.896 31.584 35.896C32.032 35.896 32.4907 35.8533 32.96 35.768C33.4507 35.6613 33.888 35.4907 34.272 35.256L34.528 35.544C33.7173 36.1627 32.7893 36.472 31.744 36.472C30.72 36.472 29.7813 36.2267 28.928 35.736C29.3333 36.0133 29.7813 36.216 30.272 36.344C30.8053 36.4933 31.3387 36.568 31.872 36.568C32.8533 36.568 33.7707 36.2907 34.624 35.736L34.912 36.152C35.1253 35.9173 35.392 35.6933 35.712 35.48C36.032 35.2453 36.3627 35.1067 36.704 35.064L37.184 35.608ZM24.96 29.176C25.0667 30.4133 25.4293 31.5973 26.048 32.728C26.6667 33.8373 27.4773 34.7333 28.48 35.416C27.4773 34.712 26.688 33.8053 26.112 32.696C25.5147 31.5653 25.1307 30.392 24.96 29.176Z" fill="white"/>
</g>
<defs>
<linearGradient id="paint0_linear_2_6" x1="55.5" y1="21" x2="27.5" y2="58" gradientUnits="userSpaceOnUse">
<stop stop-color="#E72020"/>
<stop offset="1" stop-color="#847373" stop-opacity="0"/>
</linearGradient>
<clipPath id="clip0_2_6">
<rect width="60" height="55" fill="white"/>
</clipPath>
</defs>
</svg>
